<svg width="24" height="24" viewBox="0 0 24 24" fill="none" xmlns="http://www.w3.org/2000/svg">
<path d="M22.0001 8.69008C22.0001 9.88008 21.8101 10.9801 21.4801 12.0001C19.9001 17.0001 15.0301 19.9901 12.6201 20.8101C12.2801 20.9301 11.7201 20.9301 11.3801 20.8101C10.7401 20.5901 9.93012 20.2201 9.06012 19.7001C8.50012 19.3701 8.41012 18.5901 8.87012 18.1301L20.1501 6.85008C20.6901 6.31008 21.6401 6.54008 21.8301 7.28008C21.9401 7.73008 22.0001 8.20008 22.0001 8.69008Z" fill="#292D32"/>
<path d="M22.5299 1.46994C22.2399 1.17994 21.7599 1.17994 21.4699 1.46994L19.1299 3.80994C18.3399 3.35994 17.4199 3.09994 16.4399 3.09994C14.6299 3.09994 13.0099 3.97994 11.9999 5.32994C10.9899 3.97994 9.36994 3.09994 7.55994 3.09994C4.48994 3.09994 1.99994 5.59994 1.99994 8.68994C1.99994 9.87994 2.18994 10.9799 2.51994 11.9999C3.16994 14.0699 4.38994 15.7999 5.76994 17.1699L1.46994 21.4699C1.17994 21.7599 1.17994 22.2399 1.46994 22.5299C1.61994 22.6799 1.80994 22.7499 1.99994 22.7499C2.18994 22.7499 2.37994 22.6799 2.52994 22.5299L22.5299 2.52994C22.8199 2.23994 22.8199 1.75994 22.5299 1.46994Z" fill="#292D32"/>
</svg>
