<?xml version="1.0" encoding="UTF-8"?><svg id="b" xmlns="http://www.w3.org/2000/svg" xmlns:xlink="http://www.w3.org/1999/xlink" viewBox="0 0 200 200"><defs><style>.j{fill:url(#g);}.k{fill:url(#h);}.l{fill:url(#i);}.m{fill:url(#f);}.n{fill:url(#d);}.o{fill:url(#e);}</style><linearGradient id="d" x1="7.01" y1="7.35" x2="188.17" y2="187.85" gradientUnits="userSpaceOnUse"><stop offset="0" stop-color="#1f6cff"/><stop offset="1" stop-color="#0046ce"/></linearGradient><linearGradient id="e" x1="149.35" y1="126.33" x2="148.91" y2="54.02" gradientTransform="translate(0 211.1) scale(1 -1)" gradientUnits="userSpaceOnUse"><stop offset="0" stop-color="#fff"/><stop offset="1" stop-color="#bfceff"/></linearGradient><linearGradient id="f" x1="31.58" y1="110.65" x2="56.09" y2="128.83" xlink:href="#e"/><linearGradient id="g" x1="37.99" y1="85.16" x2="74.33" y2="53.91" gradientTransform="translate(0 211.1) scale(1 -1)" gradientUnits="userSpaceOnUse"><stop offset="0" stop-color="#fff"/><stop offset="1" stop-color="#cff"/></linearGradient><linearGradient id="h" x1="43.49" y1="162.5" x2="109" y2="73.54" xlink:href="#e"/><linearGradient id="i" x1="74.36" y1="82.91" x2="155.88" y2="159.45" xlink:href="#e"/></defs><g id="c"><rect class="n" width="200" height="200" rx="32" ry="32"/><path class="o" d="M165,58.82v82.36c0,4.34-1.76,8.28-4.61,11.13-2.85,2.85-6.79,4.61-11.13,4.61-8.7,0-15.74-7.05-15.74-15.74V58.82c0-8.7,7.05-15.74,15.74-15.74s15.74,7.05,15.74,15.74h0Z"/><path class="m" d="M66.48,58.82v62.79h-15.74c-8.7,0-15.74-7.05-15.74-15.74V58.38c0-.15,0-.3,.02-.45,0-.14,.01-.28,.02-.43v-.05c.15-1.81,.62-3.53,1.34-5.11,.01-.02,.02-.06,.04-.09,.06-.13,.12-.25,.18-.38,.06-.12,.12-.25,.19-.37l.04-.08c.05-.09,.11-.2,.15-.3,.04-.08,.08-.15,.13-.23,.11-.19,.23-.39,.34-.57,.07-.11,.14-.21,.21-.32,.14-.21,.28-.42,.44-.62,.31-.4,.63-.79,.96-1.16,.17-.19,.34-.37,.52-.55,.15-.15,.32-.31,.47-.45,.02-.02,.06-.06,.08-.08,.08-.08,.18-.15,.26-.24,.07-.06,.14-.12,.21-.18,.09-.08,.19-.15,.3-.24,.33-.26,.68-.51,1.03-.75l.05-.04c.21-.14,.44-.28,.65-.42,0,0,.01,0,.02-.01,.2-.12,.39-.23,.59-.33,.06-.04,.13-.07,.19-.09,.2-.11,.42-.21,.62-.31,.08-.04,.17-.08,.25-.12,.02,0,.05-.02,.07-.04,.26-.12,.52-.23,.78-.32l.11-.04c.17-.06,.33-.12,.5-.18,.04,0,.07-.02,.11-.04,.07-.02,.15-.05,.23-.07h.01c.09-.04,.19-.06,.28-.09,.2-.06,.4-.11,.6-.15,.07-.02,.15-.04,.23-.05,.09-.02,.19-.04,.28-.06,.13-.02,.26-.05,.39-.07,.23-.04,.45-.07,.68-.11,.08,0,.17-.02,.25-.04,.08,0,.17-.02,.25-.02,.12,0,.24-.02,.36-.04h.02c.12,0,.24-.01,.34-.02h1.29c.15,0,.3,0,.45,.02,.14,0,.28,.01,.42,.02h.07c.14,.01,.27,.04,.42,.05,1.66,.19,3.24,.63,4.7,1.29,.04,.01,.06,.02,.09,.05,.13,.06,.25,.12,.37,.18,.11,.05,.21,.11,.33,.17,.06,.02,.11,.06,.17,.08,.06,.02,.11,.06,.17,.09,.07,.04,.14,.08,.21,.12,.01,0,.02,.01,.04,.02,.32,.19,.64,.38,.94,.58,.63,.43,1.22,.89,1.78,1.4,.37,.34,.72,.7,1.07,1.07l.25,.28c.07,.07,.13,.15,.19,.23s.12,.14,.17,.21c.02,.04,.05,.06,.08,.09,.09,.12,.19,.24,.27,.36l.06,.07c1.77,2.4,2.88,5.31,3.05,8.48,.01,.28,.02,.57,.02,.85h.07Z"/><path class="j" d="M50.74,156.91h0c-8.68,0-15.74-7.06-15.74-15.74h0c0-8.68,7.06-15.74,15.74-15.74h15.74v15.74c0,8.7-7.06,15.74-15.74,15.74Z"/><path class="k" d="M115.57,127.02v.06c-.57,4-2.68,7.77-6.17,10.37-2.82,2.11-6.12,3.12-9.4,3.12-4.79,0-9.54-2.18-12.62-6.33l-20.89-28.01-5.62-7.53h-.01l-22.74-30.46c-1.64-2.19-2.61-4.66-2.97-7.19-.11-.74-.15-1.47-.15-2.21h0v-.45c0-.15,0-.3,.02-.45,0-.14,.01-.28,.02-.43v-.05c.15-1.76,.6-3.49,1.34-5.11,.01-.02,.02-.06,.04-.09,.06-.13,.12-.25,.18-.38,.06-.12,.12-.25,.19-.37l.04-.08c.05-.09,.11-.2,.15-.3,.04-.08,.08-.15,.13-.23,.11-.19,.23-.38,.34-.57,.07-.11,.14-.21,.21-.32,.14-.21,.28-.42,.44-.62,.3-.4,.62-.79,.96-1.16,.17-.19,.34-.37,.52-.55,.15-.15,.31-.31,.47-.45,.02-.02,.06-.06,.08-.08,.08-.08,.18-.15,.26-.24,.07-.06,.14-.12,.21-.18,.09-.08,.19-.15,.3-.24,.13-.09,.25-.2,.38-.3,.44-.33,.89-.63,1.35-.9,0,0,.01,0,.02-.01,.46-.27,.93-.52,1.4-.74,.08-.04,.17-.08,.25-.12,.02,0,.05-.02,.07-.04,.26-.12,.52-.23,.78-.32l.11-.04c.17-.06,.33-.12,.5-.18,.04,0,.07-.02,.11-.04,.07-.02,.15-.05,.23-.07h.01c.09-.04,.19-.06,.28-.09,.2-.06,.4-.11,.6-.15,.07-.02,.15-.04,.23-.05,.09-.02,.19-.04,.28-.06,.13-.02,.26-.05,.39-.07,.23-.04,.45-.07,.68-.11,.08,0,.17-.02,.25-.04,.08,0,.17-.02,.25-.02,.12,0,.24-.02,.36-.04h.02c.12,0,.24-.01,.34-.02h1.29c.15,0,.3,0,.45,.02,.14,0,.28,.01,.42,.02h.07c.14,.01,.27,.04,.42,.05,1.61,.19,3.2,.62,4.7,1.29,.04,.01,.06,.02,.09,.05,.13,.06,.25,.12,.37,.18,.11,.05,.21,.11,.33,.17,.06,.02,.11,.06,.17,.08,.06,.02,.11,.06,.17,.09,.07,.04,.14,.08,.21,.12,.01,0,.02,.01,.04,.02,.32,.18,.63,.38,.94,.58,.63,.42,1.22,.88,1.78,1.4,.37,.33,.72,.69,1.07,1.07l.25,.28c.07,.07,.13,.15,.19,.23s.12,.14,.17,.21c.02,.04,.05,.06,.08,.09,.09,.12,.19,.24,.27,.36l.06,.07,33.07,44.34,16.12,21.6c2.59,3.46,3.52,7.64,2.97,11.6l.07-.02Z"/><path class="l" d="M164.85,61.01c-.36,2.53-1.34,5.02-2.98,7.21l-49.29,66.09c-6.31,8.47-19,8.43-25.28-.06l-6.87-9.31-11.68-15.66-7.97-10.68c10.66,12.61,30.34,11.96,40.2-1.29l35.66-47.9c5.2-6.96,15.05-8.4,22.03-3.2,4.77,3.56,6.95,9.31,6.18,14.82h0Z"/></g></svg>