<?xml version="1.0" encoding="UTF-8"?><svg id="b" xmlns="http://www.w3.org/2000/svg" xmlns:xlink="http://www.w3.org/1999/xlink" viewBox="0 0 109.59 95.96"><defs><linearGradient id="d" x1="96.4" y1="35.15" x2="96.03" y2="96.11" gradientTransform="matrix(1, 0, 0, 1, 0, 0)" gradientUnits="userSpaceOnUse"><stop offset="0" stop-color="#1f6cff"/><stop offset="1" stop-color="#0046ce"/></linearGradient><linearGradient id="e" x1="-2.88" y1="48.37" x2="17.78" y2="33.05" xlink:href="#d"/><linearGradient id="f" x1="2.52" y1="69.86" x2="33.15" y2="96.2" gradientTransform="translate(26.54 165.39) rotate(180)" xlink:href="#d"/><linearGradient id="g" x1="7.18" y1="4.64" x2="62.41" y2="79.63" xlink:href="#d"/><linearGradient id="h" x1="33.19" y1="71.76" x2="101.91" y2="7.24" xlink:href="#d"/></defs><g id="c"><g><path d="M109.59,13.27V82.7c0,3.66-1.48,6.98-3.89,9.38-2.4,2.4-5.72,3.89-9.38,3.89-7.33,0-13.27-5.94-13.27-13.27V13.27c0-7.33,5.94-13.27,13.27-13.27s13.27,5.94,13.27,13.27Z" style="fill:#a7aaad"/><path d="M26.54,13.27v52.93H13.27c-7.33,0-13.27-5.94-13.27-13.27V13.27c0-.12,0-.25,0-.37,0-.13,0-.25,.02-.38,0-.12,.01-.24,.02-.36v-.04c.13-1.53,.52-2.98,1.13-4.31,.01-.02,.02-.05,.03-.08,.05-.11,.1-.21,.15-.32,.05-.1,.1-.21,.16-.31l.03-.07c.04-.08,.09-.17,.13-.25,.03-.07,.07-.13,.11-.19,.09-.16,.19-.33,.29-.48,.06-.09,.12-.18,.18-.27,.12-.18,.24-.35,.37-.52,.26-.34,.53-.67,.81-.98,.14-.16,.29-.31,.44-.46,.13-.13,.27-.26,.4-.38,.02-.02,.05-.05,.07-.07,.07-.07,.15-.13,.22-.2,.06-.05,.12-.1,.18-.15,.08-.07,.16-.13,.25-.2,.28-.22,.57-.43,.87-.63l.04-.03c.18-.12,.37-.24,.55-.35,0,0,.01,0,.02-.01,.17-.1,.33-.19,.5-.28,.05-.03,.11-.06,.16-.08,.17-.09,.35-.18,.52-.26,.07-.03,.14-.07,.21-.1,.02,0,.04-.02,.06-.03,.22-.1,.44-.19,.66-.27l.09-.03c.14-.05,.28-.1,.42-.15,.03,0,.06-.02,.09-.03,.06-.02,.13-.04,.19-.06h.01c.08-.03,.16-.05,.24-.08,.17-.05,.34-.09,.51-.13,.06-.02,.13-.03,.19-.04,.08-.02,.16-.03,.24-.05,.11-.02,.22-.04,.33-.06,.19-.03,.38-.06,.57-.09,.07,0,.14-.02,.21-.03,.07,0,.14-.02,.21-.02,.1,0,.2-.02,.3-.03,0,0,.01,0,.02,0,.1,0,.2-.01,.29-.02,.03,0,.06,0,.09,0,.08,0,.15,0,.23,0,.13,0,.27,0,.4,0,.12,0,.25,0,.37,0,.13,0,.25,0,.38,.02,.12,0,.24,.01,.35,.02h.06c.12,.01,.23,.03,.35,.04,1.4,.16,2.73,.53,3.96,1.09,.03,.01,.05,.02,.08,.04,.11,.05,.21,.1,.31,.15,.09,.04,.18,.09,.28,.14,.05,.02,.09,.05,.14,.07,.05,.02,.09,.05,.14,.08,.06,.03,.12,.07,.18,.1,.01,0,.02,.01,.03,.02,.27,.16,.54,.32,.79,.49,.53,.36,1.03,.75,1.5,1.18,.31,.29,.61,.59,.9,.9,.07,.08,.14,.16,.21,.24,.06,.06,.11,.13,.16,.19,.05,.06,.1,.12,.14,.18,.02,.03,.04,.05,.07,.08,.08,.1,.16,.2,.23,.3l.05,.06c1.49,2.02,2.43,4.48,2.57,7.15,.01,.24,.02,.48,.02,.72Z" style="fill:#a7aaad"/><path d="M13.27,69.43h0c7.32,0,13.27,5.95,13.27,13.27h0c0,7.32-5.95,13.27-13.27,13.27H0v-13.27C0,75.37,5.95,69.43,13.27,69.43Z" transform="translate(26.54 165.39) rotate(-180)" style="fill:#a7aaad"/><path d="M67.92,70.76s0,.03,0,.05c-.48,3.37-2.26,6.55-5.2,8.74-2.38,1.78-5.16,2.63-7.92,2.63-4.04,0-8.04-1.84-10.64-5.34l-17.61-23.61-4.74-6.35h-.01L2.63,21.2c-1.38-1.85-2.2-3.93-2.5-6.06-.09-.62-.13-1.24-.13-1.86H0c0-.13,0-.26,0-.38,0-.13,0-.25,.02-.38,0-.12,.01-.24,.02-.36v-.04c.13-1.48,.51-2.94,1.13-4.31,.01-.02,.02-.05,.03-.08,.05-.11,.1-.21,.15-.32,.05-.1,.1-.21,.16-.31l.03-.07c.04-.08,.09-.17,.13-.25,.03-.07,.07-.13,.11-.19,.09-.16,.19-.32,.29-.48,.06-.09,.12-.18,.18-.27,.12-.18,.24-.35,.37-.52,.25-.34,.52-.67,.81-.98,.14-.16,.29-.31,.44-.46,.13-.13,.26-.26,.4-.38,.02-.02,.05-.05,.07-.07,.07-.07,.15-.13,.22-.2,.06-.05,.12-.1,.18-.15,.08-.07,.16-.13,.25-.2,.11-.08,.21-.17,.32-.25,.37-.28,.75-.53,1.14-.76,0,0,.01,0,.02-.01,.39-.23,.78-.44,1.18-.62,.07-.03,.14-.07,.21-.1,.02,0,.04-.02,.06-.03,.22-.1,.44-.19,.66-.27l.09-.03c.14-.05,.28-.1,.42-.15,.03,0,.06-.02,.09-.03,.06-.02,.13-.04,.19-.06h.01c.08-.03,.16-.05,.24-.08,.17-.05,.34-.09,.51-.13,.06-.02,.13-.03,.19-.04,.08-.02,.16-.03,.24-.05,.11-.02,.22-.04,.33-.06,.19-.03,.38-.06,.57-.09,.07,0,.14-.02,.21-.03,.07,0,.14-.02,.21-.02,.1,0,.2-.02,.3-.03,0,0,.01,0,.02,0,.1,0,.2-.01,.29-.02,.03,0,.06,0,.09,0,.08,0,.15,0,.23,0,.13,0,.27,0,.4,0,.12,0,.25,0,.37,0,.13,0,.25,0,.38,.02,.12,0,.24,.01,.35,.02h.06c.12,.01,.23,.03,.35,.04,1.36,.16,2.7,.52,3.96,1.09,.03,.01,.05,.02,.08,.04,.11,.05,.21,.1,.31,.15,.09,.04,.18,.09,.28,.14,.05,.02,.09,.05,.14,.07,.05,.02,.09,.05,.14,.08,.06,.03,.12,.07,.18,.1,.01,0,.02,.01,.03,.02,.27,.15,.53,.32,.79,.49,.53,.35,1.03,.74,1.5,1.18,.31,.28,.61,.58,.9,.9,.07,.08,.14,.16,.21,.24,.06,.06,.11,.13,.16,.19,.05,.06,.1,.12,.14,.18,.02,.03,.04,.05,.07,.08,.08,.1,.16,.2,.23,.3l.05,.06,27.88,37.38,13.59,18.21c2.18,2.92,2.97,6.44,2.5,9.78Z" style="fill:#a7aaad"/><path d="M109.46,15.12c-.3,2.13-1.13,4.23-2.51,6.08l-41.55,55.71c-5.32,7.14-16.02,7.11-21.31-.05l-5.79-7.85-9.85-13.2-6.72-9c8.99,10.63,25.58,10.08,33.89-1.09L85.68,5.34c4.38-5.87,12.69-7.08,18.57-2.7,4.02,3,5.86,7.85,5.21,12.49Z" style="fill:#a7aaad"/></g></g></svg>